<svg width="30" height="210" viewBox="0 0 30 210" fill="none" xmlns="http://www.w3.org/2000/svg">
<path d="M17 15.586L13.458 12.044C14.421 10.782 15 9.21 15 7.5C15 3.358 11.643 0 7.5 0C3.358 0 0 3.358 0 7.5C0 11.643 3.358 15 7.5 15C9.21 15 10.782 14.421 12.044 13.458L15.586 17L17 15.586ZM2 7.5C2 4.467 4.467 2 7.5 2C10.532 2 13 4.467 13 7.5C13 10.532 10.532 13 7.5 13C4.467 13 2 10.532 2 7.5Z" fill="white"/>
<path d="M17 45.586L13.458 42.044C14.421 40.782 15 39.21 15 37.5C15 33.358 11.643 30 7.5 30C3.358 30 0 33.358 0 37.5C0 41.643 3.358 45 7.5 45C9.21 45 10.782 44.421 12.044 43.458L15.586 47L17 45.586ZM2 37.5C2 34.467 4.467 32 7.5 32C10.532 32 13 34.467 13 37.5C13 40.532 10.532 43 7.5 43C4.467 43 2 40.532 2 37.5Z" fill="#EE3346"/>
<path d="M14 75C14 75.55 13.632 75.741 13.182 75.426L7.819 71.661C7.369 71.346 6.632 71.346 6.182 71.661L0.818 75.426C0.368 75.741 0 75.55 0 75V61C0 60.45 0.45 60 1 60H13C13.55 60 14 60.45 14 61V75Z" fill="white"/>
<path d="M4.5 105C5.32843 105 6 104.328 6 103.5C6 102.672 5.32843 102 4.5 102C3.67157 102 3 102.672 3 103.5C3 104.328 3.67157 105 4.5 105Z" fill="white"/>
<path d="M12.5 105C13.3284 105 14 104.328 14 103.5C14 102.672 13.3284 102 12.5 102C11.6716 102 11 102.672 11 103.5C11 104.328 11.6716 105 12.5 105Z" fill="white"/>
<path d="M15 92H4.07L3.648 90H0V92H2.031L4.016 101H15V99H9.441L15 96.951V92Z" fill="white"/>
<g clip-path="url(#clip0)">
<path d="M14.875 128.5L6 120V126H0V131H6V137L14.875 128.5Z" fill="#32425C"/>
<path d="M16.986 135.01H11.959V137H16.986C19.164 137 19.99 135.19 20.015 133.974V123.028C19.99 121.811 19.164 120 16.986 120H11.959V121.99H16.986C17.825 121.99 17.978 122.671 17.996 123.047V133.951C17.979 134.327 17.825 135.01 16.986 135.01Z" fill="#32425C"/>
</g>
<g clip-path="url(#clip1)">
<path d="M21 158.5L12.125 150V156H6.125V161H12.125V167L21 158.5Z" fill="#32425C"/>
<path d="M3.10604 163.952V153.048C3.12404 152.672 3.27704 151.991 4.11604 151.991H9.14304V150H4.11604C1.93804 150 1.11204 151.81 1.08704 153.027V163.973C1.11204 165.189 1.93804 167 4.11604 167H9.14304V165.01H4.11604C3.27704 165.01 3.12404 164.327 3.10604 163.952Z" fill="#32425C"/>
</g>
<path d="M20.572 200.985C20.26 200.985 19.943 200.985 19.631 200.985C15.502 200.497 12.474 198.577 10.272 196.121C8.06203 193.66 6.31803 190.492 5.97803 186.228C5.97803 185.846 5.97803 185.466 5.97803 185.084C6.05603 184.31 6.43703 183.78 6.87603 183.327C7.42503 182.766 8.25003 182.044 9.00203 182.019C9.55603 182.001 10.502 182.399 10.881 182.918C11.21 183.364 11.385 184.257 11.537 184.921C11.691 185.592 12.042 186.564 11.945 187.21C11.797 188.217 10.458 188.644 10.066 189.376C11.373 192.511 13.509 194.815 16.359 196.407C17.074 196.015 17.705 194.835 18.691 194.812C19.05 194.803 19.509 194.99 19.875 195.098C20.277 195.219 20.625 195.373 20.979 195.506C21.575 195.73 22.627 196.027 22.983 196.527C23.348 197.04 23.553 197.883 23.473 198.406C23.309 199.447 21.594 200.603 20.572 200.985Z" fill="#B7BFC8"/>
<defs>
<clipPath id="clip0">
<rect y="120" width="20" height="17" fill="white"/>
</clipPath>
<clipPath id="clip1">
<rect y="150" width="21" height="17" fill="white"/>
</clipPath>
</defs>
</svg>
